<?xml version="1.0"?>
<svg xmlns="http://www.w3.org/2000/svg" viewBox="0 0 64 64" width="70px" height="70px">
    <path fill="rgb(255, 255, 255)" d="M 31 2 C 15.009 2 2 15.009 2 31 C 2 46.991 15.009 60 31 60 C 46.991 60 60 46.991 60 31 C 60 15.009 46.991 2 31 2 z M 31 4 C 45.888 4 58 16.112 58 31 C 58 45.888 45.888 58 31 58 C 16.112 58 4 45.888 4 31 C 4 16.112 16.112 4 31 4 z M 31 8 C 18.318 8 8 18.318 8 31 C 8 43.682 18.318 54 31 54 C 43.682 54 54 43.682 54 31 C 54 23.896 50.791219 17.30125 45.199219 12.90625 C 44.765219 12.56525 44.138875 12.639219 43.796875 13.074219 C 43.455875 13.508219 43.530844 14.136516 43.964844 14.478516 C 49.071844 18.492516 52 24.514 52 31 C 52 42.58 42.58 52 31 52 C 19.42 52 10 42.58 10 31 C 10 19.42 19.42 10 31 10 C 32.028 10 33.059453 10.075656 34.064453 10.222656 C 34.612453 10.303656 35.119219 9.9249062 35.199219 9.3789062 C 35.279219 8.8319062 34.901469 8.3231406 34.355469 8.2441406 C 33.253469 8.0821406 32.125 8 31 8 z M 38.533203 9.34375 C 38.144188 9.3631094 37.785078 9.6095469 37.642578 9.9980469 C 37.453578 10.516047 37.720281 11.09025 38.238281 11.28125 C 39.021281 11.56825 39.798828 11.908969 40.548828 12.292969 C 40.694828 12.366969 40.850906 12.400391 41.003906 12.400391 C 41.367906 12.400391 41.717531 12.201469 41.894531 11.855469 C 42.145531 11.363469 41.950984 10.761766 41.458984 10.509766 C 40.636984 10.089766 39.784781 9.7173437 38.925781 9.4023438 C 38.796531 9.3550937 38.662875 9.3372969 38.533203 9.34375 z M 31 14 C 30.448 14 30 14.448 30 15 L 30 17 C 30 17.552 30.448 18 31 18 C 31.552 18 32 17.552 32 17 L 32 15 C 32 14.448 31.552 14 31 14 z M 36.978516 15.166016 C 36.588844 15.172578 36.221656 15.407016 36.066406 15.791016 L 35.316406 17.644531 C 35.109406 18.156531 35.357141 18.740266 35.869141 18.947266 C 35.992141 18.996266 36.120141 19.019531 36.244141 19.019531 C 36.640141 19.019531 37.014875 18.783531 37.171875 18.394531 L 37.921875 16.539062 C 38.128875 16.027062 37.879188 15.445281 37.367188 15.238281 C 37.239187 15.186781 37.108406 15.163828 36.978516 15.166016 z M 42.097656 18.490234 C 41.841781 18.494484 41.588484 18.597875 41.396484 18.796875 L 40.005859 20.234375 C 39.621859 20.631375 39.632297 21.264437 40.029297 21.648438 C 40.223297 21.836437 40.473609 21.929688 40.724609 21.929688 C 40.986609 21.929688 41.247359 21.826047 41.443359 21.623047 L 42.833984 20.185547 C 43.217984 19.788547 43.207547 19.155484 42.810547 18.771484 C 42.612047 18.579484 42.353531 18.485984 42.097656 18.490234 z M 31 20 C 30.448 20 30 20.448 30 21 L 30 29.277344 C 29.405 29.624344 29 30.263 29 31 C 29 32.103 29.897 33 31 33 C 31.178 33 31.347719 32.969781 31.511719 32.925781 L 37.792969 39.207031 C 37.987969 39.402031 38.244 39.5 38.5 39.5 C 38.756 39.5 39.012031 39.402031 39.207031 39.207031 C 39.598031 38.816031 39.598031 38.183969 39.207031 37.792969 L 32.925781 31.511719 C 32.969781 31.347719 33 31.178 33 31 C 33 30.263 32.595 29.624344 32 29.277344 L 32 21 C 32 20.448 31.552 20 31 20 z M 45.597656 23.492188 C 45.467813 23.494609 45.337187 23.522125 45.210938 23.578125 L 43.382812 24.392578 C 42.878813 24.617578 42.652953 25.208891 42.876953 25.712891 C 43.042953 26.085891 43.406063 26.306641 43.789062 26.306641 C 43.925063 26.306641 44.063312 26.27775 44.195312 26.21875 L 46.023438 25.40625 C 46.527437 25.18125 46.753297 24.589938 46.529297 24.085938 C 46.360547 23.707187 45.987188 23.484922 45.597656 23.492188 z M 15 30 C 14.448 30 14 30.448 14 31 C 14 31.552 14.448 32 15 32 L 17 32 C 17.552 32 18 31.552 18 31 C 18 30.448 17.552 30 17 30 L 15 30 z M 45 30 C 44.448 30 44 30.448 44 31 C 44 31.552 44.448 32 45 32 L 47 32 C 47.552 32 48 31.552 48 31 C 48 30.448 47.552 30 47 30 L 45 30 z M 43.964844 35.244141 C 43.575172 35.250937 43.207984 35.485891 43.052734 35.869141 C 42.845734 36.381141 43.093469 36.964875 43.605469 37.171875 L 45.460938 37.921875 C 45.583937 37.970875 45.709984 37.994141 45.833984 37.994141 C 46.229984 37.994141 46.604719 37.756187 46.761719 37.367188 C 46.968719 36.855187 46.720984 36.273406 46.208984 36.066406 L 44.355469 35.316406 C 44.227469 35.264906 44.094734 35.241875 43.964844 35.244141 z M 41.054688 39.724609 C 40.798938 39.728859 40.543563 39.830297 40.351562 40.029297 C 40.199562 40.186297 40.128609 40.384938 40.099609 40.585938 C 39.929609 40.954937 39.988969 41.402031 40.292969 41.707031 L 41.605469 43.019531 C 41.800469 43.214531 42.0565 43.3125 42.3125 43.3125 C 42.5685 43.3125 42.824531 43.214531 43.019531 43.019531 C 43.056531 42.982531 43.073516 42.935531 43.103516 42.894531 C 43.143516 42.863531 43.192516 42.846594 43.228516 42.808594 C 43.612516 42.411594 43.600125 41.778531 43.203125 41.394531 L 41.765625 40.005859 C 41.566625 39.813859 41.310437 39.720359 41.054688 39.724609 z M 31 44 C 30.448 44 30 44.448 30 45 L 30 47 C 30 47.552 30.448 48 31 48 C 31.552 48 32 47.552 32 47 L 32 45 C 32 44.448 31.552 44 31 44 z"/>
</svg>
