<?xml version="1.0"?>
<svg xmlns="http://www.w3.org/2000/svg" viewBox="0 0 50 50" width="70px" height="70px">
    <path style="text-indent:0;text-align:start;line-height:normal;text-transform:none;block-progression:tb;-inkscape-font-specification:Sans" fill="rgb(255, 255, 255)" d="M 13 0 C 9.1458514 0 6 3.1458514 6 7 C 6 10.854148 9.1458513 14 13 14 C 16.854148 14 20 10.854148 20 7 C 20 3.1458513 16.854148 0 13 0 z M 37 0 C 34.615877 0 32.483843 1.200709 31.21875 3.03125 A 1.0001 1.0001 0 0 0 31.09375 3.09375 C 29.985643 3.5686529 28.531006 4.2989698 27.3125 5.6875 C 26.093994 7.0760302 25.160622 9.099842 25 11.9375 A 1.0001 1.0001 0 0 0 26 13 L 30 13 A 1.0001 1.0001 0 0 0 31 12 C 31 11.50742 31.013437 11.089926 31.03125 10.65625 C 32.265292 12.660106 34.483436 14 37 14 C 39.516564 14 41.734708 12.660106 42.96875 10.65625 C 42.986563 11.089926 43 11.50742 43 12 A 1.0001 1.0001 0 0 0 44 13 L 48 13 A 1.0001 1.0001 0 0 0 49 11.9375 C 48.839378 9.099842 47.906006 7.0760302 46.6875 5.6875 C 45.468994 4.2989698 44.014357 3.5686529 42.90625 3.09375 A 1.0001 1.0001 0 0 0 42.78125 3.0625 C 41.517805 1.2203833 39.393064 0 37 0 z M 13 2 C 15.773268 2 18 4.2267317 18 7 C 18 9.7732677 15.773268 12 13 12 C 10.226732 12 8 9.7732678 8 7 C 8 4.2267316 10.226732 2 13 2 z M 37 2 C 39.773268 2 42 4.2267317 42 7 C 42 9.7732677 39.773268 12 37 12 C 34.226732 12 32 9.7732677 32 7 C 32 4.2267317 34.226732 2 37 2 z M 29.5625 6.375 C 29.300022 7.4931148 29.123399 8.993355 29.0625 11 L 27.21875 11 C 27.500153 9.2224683 28.042649 7.8772723 28.8125 7 C 29.040239 6.7404834 29.314693 6.5838867 29.5625 6.375 z M 44.4375 6.375 C 44.685307 6.5838867 44.959761 6.7404834 45.1875 7 C 45.957351 7.8772723 46.499847 9.2224683 46.78125 11 L 44.9375 11 C 44.8766 8.993355 44.699978 7.4931148 44.4375 6.375 z M 9.40625 14.90625 C 6.4529167 14.90625 3.75014 16.87444 3.03125 19.75 L 0.03125 31.4375 A 1.0001 1.0001 0 0 0 0.03125 31.5 C -0.26680807 32.99029 0.62603113 34.396177 1.96875 34.84375 A 1.0001 1.0001 0 0 0 2.09375 34.875 C 3.5020965 35.156669 5.0755962 34.373502 5.4375 32.875 L 5.46875 32.875 L 6 30.90625 L 6 35.8125 A 1.0001 1.0001 0 0 0 6 36 A 1.0001 1.0001 0 0 0 6 36.09375 L 6 47 C 6 48.645455 7.3545455 50 9 50 C 10.645455 50 12 48.645455 12 47 L 12 37 L 14 37 L 14 47 C 14 48.645455 15.354545 50 17 50 C 18.645455 50 20 48.645455 20 47 L 20 36.15625 A 1.0001 1.0001 0 0 0 20 36 A 1.0001 1.0001 0 0 0 20 35.90625 L 20 31.1875 L 20.4375 32.84375 C 20.761146 34.138332 21.8875 35 23.1875 35 C 23.2875 35 23.741095 35.165155 24.3125 34.59375 L 24.25 34.53125 C 24.449017 34.440488 24.640055 34.313642 24.8125 34.1875 C 25.11072 34.476456 25.476326 34.714773 25.90625 34.84375 C 26.170911 34.923148 26.446673 34.96384 26.71875 34.96875 L 26.46875 35.65625 A 1.0001 1.0001 0 0 0 27.40625 37 L 32 37 L 32 47 C 32 48.645455 33.354545 50 35 50 C 35.767072 50 36.467126 49.699734 37 49.21875 C 37.532874 49.699734 38.232928 50 39 50 C 40.645455 50 42 48.645455 42 47 L 42 37 L 46.59375 37 A 1.0001 1.0001 0 0 0 47.53125 35.65625 L 47.28125 35 C 47.475028 34.978594 47.726871 34.912637 48 34.8125 L 48 34.84375 C 48.03854 34.83219 48.05633 34.79428 48.09375 34.78125 C 48.11827 34.77032 48.1315 34.79362 48.15625 34.78125 L 48.15625 34.75 C 49.597077 34.204015 50.193306 32.611169 49.75 31.28125 A 1.0001 1.0001 0 0 0 49.75 31.25 L 45.125 19.15625 C 44.170383 16.65038 41.705797 15 39 15 L 34.90625 15 C 32.200453 15 29.704617 16.65038 28.75 19.15625 L 25.15625 28.625 L 22.875 19.75 C 22.162451 16.899803 19.535897 14.90625 16.5 14.90625 L 9.40625 14.90625 z M 9.40625 16.90625 L 16.5 16.90625 C 18.664103 16.90625 20.450049 18.300197 20.9375 20.25 L 23.9375 31.9375 A 1.0001 1.0001 0 0 0 23.9375 32 C 24.079327 32.472756 23.8531 32.81688 23.40625 32.90625 A 1.0001 1.0001 0 0 0 23.1875 33 C 22.8875 33 22.451354 32.649168 22.375 32.34375 L 19.96875 23.15625 A 1.0001 1.0001 0 0 0 18 23.40625 L 18 28 L 8 28 L 8 23.40625 A 1.0001 1.0001 0 0 0 6.03125 23.125 L 3.53125 32.34375 A 1.0001 1.0001 0 0 0 3.53125 32.40625 C 3.448334 32.820831 3.0809895 32.986858 2.5625 32.90625 C 2.1579204 32.742126 1.8906936 32.403411 1.96875 31.9375 C 1.97069 31.92591 1.96641 31.91796 1.96875 31.90625 L 4.96875 20.25 C 5.44986 18.32556 7.3595833 16.90625 9.40625 16.90625 z M 34.90625 17 L 39 17 C 40.894203 17 42.604617 18.14962 43.25 19.84375 L 47.84375 31.90625 C 47.982122 32.321367 47.83214 32.809733 47.40625 32.9375 A 1.0001 1.0001 0 0 0 47.25 33 C 47.28851 32.98074 47.29375 33 47.09375 33 C 46.879928 33 46.505017 32.755296 46.34375 32.4375 C 46.33625 32.42266 46.31902 32.42146 46.3125 32.40625 L 46.125 31.9375 A 1.0040202 1.0040202 0 0 0 46.09375 31.84375 L 42.9375 23.625 A 1.0097184 1.0097184 0 0 0 41.0625 24.375 L 44.21875 32.46875 A 1.0040202 1.0040202 0 0 0 44.25 32.65625 L 45.15625 35 L 28.84375 35 L 29.75 32.65625 A 1.0001 1.0001 0 0 0 29.8125 32.4375 L 32.9375 24.375 A 1.0097184 1.0097184 0 1 0 31.0625 23.625 L 27.65625 32.4375 C 27.435542 32.98927 27.089921 33.114476 26.5 32.9375 C 26.056535 32.804461 25.848428 32.341036 26 32 A 1.0001 1.0001 0 0 0 26.03125 31.96875 L 30.625 19.84375 C 31.270383 18.14962 33.012047 17 34.90625 17 z M 8 30 L 18 30 L 18 35 L 14.8125 35 L 11 35 L 8 35 L 8 30 z M 8 37 L 10 37 L 10 47 C 10 47.554545 9.5545455 48 9 48 C 8.4454545 48 8 47.554545 8 47 L 8 37 z M 16 37 L 18 37 L 18 47 C 18 47.554545 17.554545 48 17 48 C 16.445455 48 16 47.554545 16 47 L 16 37 z M 34 37 L 36 37 L 36 47 C 36 47.554545 35.554545 48 35 48 C 34.445455 48 34 47.554545 34 47 L 34 37 z M 38 37 L 40 37 L 40 47 C 40 47.554545 39.554545 48 39 48 C 38.445455 48 38 47.554545 38 47 L 38 37 z"/>
</svg>
